<svg xmlns="http://www.w3.org/2000/svg" viewBox="0 0 512 512">
  <defs>
    <linearGradient id="bg" x1="0%" y1="0%" x2="100%" y2="100%">
      <stop offset="0%" style="stop-color:#27272a;stop-opacity:1" />
      <stop offset="100%" style="stop-color:#09090b;stop-opacity:1" />
    </linearGradient>
  </defs>
  <circle cx="256" cy="256" r="250" fill="url(#bg)" stroke="#18181b" stroke-width="4"/>
  
  <!-- The "R" Arrow Shape -->
  <path d="M120 400 L280 240 Q300 220 320 240 L420 340" fill="none" stroke="#f97316" stroke-width="45" stroke-linecap="round"/>
  <path d="M280 240 L400 120 L420 200 L400 120 L320 100 Z" fill="#f97316" stroke="#f97316" stroke-width="10" stroke-linejoin="round"/>
  <path d="M240 280 L340 280" fill="none" stroke="#f97316" stroke-width="40" stroke-linecap="round"/>
  
  <!-- Candlesticks -->
  <g fill="#f97316">
    <rect x="180" y="340" width="15" height="40" rx="2"/>
    <rect x="186" y="330" width="3" height="60" rx="1"/>
    
    <rect x="220" y="310" width="15" height="60" rx="2"/>
    <rect x="226" y="300" width="3" height="80" rx="1"/>
    
    <rect x="260" y="350" width="15" height="30" rx="2"/>
    <rect x="266" y="340" width="3" height="50" rx="1"/>
    
    <rect x="300" y="330" width="15" height="50" rx="2"/>
    <rect x="306" y="320" width="3" height="70" rx="1"/>
    
    <rect x="340" y="280" width="15" height="80" rx="2"/>
    <rect x="346" y="270" width="3" height="100" rx="1"/>
  </g>
</svg>
